<?xml version="1.0" encoding="utf-8"?>
<!-- Generator: Adobe Illustrator 20.1.0, SVG Export Plug-In . SVG Version: 6.00 Build 0)  -->
<!DOCTYPE svg PUBLIC "-//W3C//DTD SVG 1.1//EN" "http://www.w3.org/Graphics/SVG/1.1/DTD/svg11.dtd">
<svg version="1.1" id="Layer_1" xmlns="http://www.w3.org/2000/svg" xmlns:xlink="http://www.w3.org/1999/xlink" x="0px" y="0px"
	 viewBox="0 0 100 50" style="enable-background:new 0 0 100 100;" xml:space="preserve">
<title>mountains-3 copy 2</title>
<desc>Created with Sketch.</desc>
<path d="M65,39.7c-5.4,0-10.2,2.6-13.2,6.5l0.3-13.6c0-5.6,4.5-10.1,10.1-10.1h4.1c-0.8,5.5-5.1,9.8-10.7,10.3l0.3,3.4
	c7.9-0.8,13.9-7.5,13.9-15.5v-1.7h-7.7c-4,0-7.6,1.8-10.1,4.6v-2v-0.1h0C52,12.4,44.6,5,35.5,5h-9.2v1.7c0,10.5,8.6,19.1,19.1,19.1
	v-3.4c-8.1,0-14.7-6.1-15.6-14h5.7c7.3,0,13.2,5.9,13.2,13.2v12.7c-3-4.2-7.9-6.9-13.4-6.9H26v1.7c0,10.5,8.6,19.1,19.1,19.1h3.3
	v29.6h3.4V60.5h3.3c10.5,0,19.1-8.6,19.1-19.1v-1.7H65z M48.4,44.8h-3.3c-8.1,0-14.7-6.1-15.6-14h5.7c7.3,0,13.2,5.9,13.2,13.2V44.8
	z M55.1,57.1h-3.3v-0.8c0-7.3,5.9-13.2,13.2-13.2h5.7C69.9,51,63.2,57.1,55.1,57.1z"/>
</svg>
